{
  "accessors": [
    {
      "bufferView": 2,
      "componentType": 5126,
      "count": 65532,
      "max": [
        3.3605127334594727,
        -7.2289862632751465,
        5.657233715057373
      ],
      "min": [
        -7.00211238861084,
        -28.515121459960938,
        -8.907771110534668
      ],
      "type": "VEC3"
    },
    {
      "bufferView": 2,
      "byteOffset": 786384,
      "componentType": 5126,
      "count": 65532,
      "max": [
        0.9999959468841553,
        0.9999775886535645,
        0.9999969601631165
      ],
      "min": [
        -0.9999983906745911,
        -0.9997056722640991,
        -0.9999982714653015
      ],
      "type": "VEC3"
    },
    {
      "bufferView": 1,
      "componentType": 5126,
      "count": 65532,
      "max": [
        0.9990230202674866,
        0.9130859971046448
      ],
      "min": [
        0.0009769999887794256,
        0.0009769999887794256
      ],
      "type": "VEC2"
    },
    {
      "bufferView": 0,
      "componentType": 5125,
      "count": 272442,
      "type": "SCALAR"
    },
    {
      "bufferView": 2,
      "byteOffset": 1572768,
      "componentType": 5126,
      "count": 56094,
      "max": [
        3.497807502746582,
        -7.118072986602783,
        5.657233715057373
      ],
      "min": [
        -6.918678283691406,
        -28.515121459960938,
        -9.15731143951416
      ],
      "type": "VEC3"
    },
    {
      "bufferView": 2,
      "byteOffset": 2245896,
      "componentType": 5126,
      "count": 56094,
      "max": [
        0.9998925924301147,
        0.9999775886535645,
        0.9999767541885376
      ],
      "min": [
        -0.9999949932098389,
        -0.999973714351654,
        -0.9999592900276184
      ],
      "type": "VEC3"
    },
    {
      "bufferView": 1,
      "byteOffset": 524256,
      "componentType": 5126,
      "count": 56094,
      "max": [
        0.9990230202674866,
        0.9091799855232239
      ],
      "min": [
        0.0009769999887794256,
        0.0009769999887794256
      ],
      "type": "VEC2"
    },
    {
      "bufferView": 0,
      "byteOffset": 1089768,
      "componentType": 5125,
      "count": 177546,
      "type": "SCALAR"
    }
  ],
  "asset": {
    "extras": {
      "author": "Pholution (https://sketchfab.com/Pholution)",
      "license": "CC-BY-4.0 (http://creativecommons.org/licenses/by/4.0/)",
      "source": "https://sketchfab.com/3d-models/goethe-schiller-statue-denkmal-weimar-3d-scan-d1e70b8c43444395b6649f8d73664396",
      "title": "Goethe-Schiller Statue / Denkmal Weimar 3D-Scan"
    },
    "generator": "Sketchfab-12.63.0",
    "version": "2.0"
  },
  "bufferViews": [
    {
      "buffer": 0,
      "byteLength": 1799952,
      "name": "floatBufferViews",
      "target": 34963
    },
    {
      "buffer": 0,
      "byteLength": 973008,
      "byteOffset": 1799952,
      "byteStride": 8,
      "name": "floatBufferViews",
      "target": 34962
    },
    {
      "buffer": 0,
      "byteLength": 2919024,
      "byteOffset": 2772960,
      "byteStride": 12,
      "name": "floatBufferViews",
      "target": 34962
    }
  ],
  "buffers": [
    {
      "byteLength": 5691984,
      "uri": "scene.bin"
    }
  ],
  "images": [
    {
      "uri": "textures/Goethe-Schiller-Denkmal_Material_u1_v1_baseColor.png"
    }
  ],
  "materials": [
    {
      "doubleSided": true,
      "name": "Goethe-Schiller-Denkmal_Material_u1_v1",
      "pbrMetallicRoughness": {
        "baseColorTexture": {
          "index": 0
        },
        "metallicFactor": 0.0
      }
    }
  ],
  "meshes": [
    {
      "name": "Object_0",
      "primitives": [
        {
          "attributes": {
            "NORMAL": 1,
            "POSITION": 0,
            "TEXCOORD_0": 2
          },
          "indices": 3,
          "material": 0,
          "mode": 4
        }
      ]
    },
    {
      "name": "Object_1",
      "primitives": [
        {
          "attributes": {
            "NORMAL": 5,
            "POSITION": 4,
            "TEXCOORD_0": 6
          },
          "indices": 7,
          "material": 0,
          "mode": 4
        }
      ]
    }
  ],
  "nodes": [
    {
      "children": [
        1
      ],
      "matrix": [
        0.9982196092605591,
        8.39005076691412e-17,
        0.05964570492506027,
        0.0,
        1.700029006457271e-16,
        -1.0,
        -1.768984264627349e-15,
        0.0,
        0.05964570492506027,
        1.776503614328142e-15,
        -0.9982196092605591,
        0.0,
        0.1012631356716156,
        -19.56662178039551,
        16.17415618896484,
        1.0
      ],
      "name": "Sketchfab_model"
    },
    {
      "children": [
        2,
        3
      ],
      "name": "Goethe-Schiller-Denkmal.obj.cleaner.materialmerger.gles"
    },
    {
      "mesh": 0,
      "name": "Object_2"
    },
    {
      "mesh": 1,
      "name": "Object_3"
    }
  ],
  "samplers": [
    {
      "magFilter": 9729,
      "minFilter": 9987,
      "wrapS": 10497,
      "wrapT": 10497
    }
  ],
  "scene": 0,
  "scenes": [
    {
      "name": "Sketchfab_Scene",
      "nodes": [
        0
      ]
    }
  ],
  "textures": [
    {
      "sampler": 0,
      "source": 0
    }
  ]
}
