{
  "accessors": [
    {
      "bufferView": 2,
      "componentType": 5126,
      "count": 1867,
      "max": [
        1.478912591934204,
        0.5220732688903809,
        5.354970932006836
      ],
      "min": [
        -1.478912591934204,
        -0.6595441102981567,
        0.04676556587219238
      ],
      "type": "VEC3"
    },
    {
      "bufferView": 2,
      "byteOffset": 22404,
      "componentType": 5126,
      "count": 1867,
      "max": [
        1.0,
        1.0,
        1.0
      ],
      "min": [
        -1.0,
        -1.0,
        -1.0
      ],
      "type": "VEC3"
    },
    {
      "bufferView": 3,
      "componentType": 5126,
      "count": 1867,
      "max": [
        1.0,
        1.0,
        1.0,
        1.0
      ],
      "min": [
        -1.0,
        -1.0,
        -1.0,
        -1.0
      ],
      "type": "VEC4"
    },
    {
      "bufferView": 1,
      "componentType": 5126,
      "count": 1867,
      "max": [
        0.9987335801124573,
        0.9927535653114319
      ],
      "min": [
        0.006435757037252188,
        0.005280834157019854
      ],
      "type": "VEC2"
    },
    {
      "bufferView": 1,
      "byteOffset": 14936,
      "componentType": 5126,
      "count": 1867,
      "max": [
        0.9987335801124573,
        0.9927535653114319
      ],
      "min": [
        0.006435757037252188,
        0.005280834157019854
      ],
      "type": "VEC2"
    },
    {
      "bufferView": 1,
      "byteOffset": 29872,
      "componentType": 5126,
      "count": 1867,
      "max": [
        0.9987335801124573,
        0.9927535653114319
      ],
      "min": [
        0.006435757037252188,
        0.005280834157019854
      ],
      "type": "VEC2"
    },
    {
      "bufferView": 0,
      "componentType": 5125,
      "count": 6828,
      "type": "SCALAR"
    },
    {
      "bufferView": 2,
      "byteOffset": 44808,
      "componentType": 5126,
      "count": 534,
      "max": [
        1.380495309829712,
        -0.3570171296596527,
        3.8728291988372803
      ],
      "min": [
        -1.380495309829712,
        -0.35845720767974854,
        1.3265873193740845
      ],
      "type": "VEC3"
    },
    {
      "bufferView": 2,
      "byteOffset": 51216,
      "componentType": 5126,
      "count": 534,
      "max": [
        0.014464640989899635,
        -0.9991235733032227,
        0.00019595846242737025
      ],
      "min": [
        -0.0418589785695076,
        -1.0,
        -0.00033593119587749243
      ],
      "type": "VEC3"
    },
    {
      "bufferView": 3,
      "byteOffset": 29872,
      "componentType": 5126,
      "count": 534,
      "max": [
        1.0,
        0.014463670551776886,
        0.29673466086387634,
        1.0
      ],
      "min": [
        0.9462881088256836,
        -0.04182795435190201,
        -0.32088738679885864,
        1.0
      ],
      "type": "VEC4"
    },
    {
      "bufferView": 1,
      "byteOffset": 44808,
      "componentType": 5126,
      "count": 534,
      "max": [
        1.996467113494873,
        0.9992074370384216
      ],
      "min": [
        1.001501202583313,
        0.0018696211045607924
      ],
      "type": "VEC2"
    },
    {
      "bufferView": 1,
      "byteOffset": 49080,
      "componentType": 5126,
      "count": 534,
      "max": [
        1.996467113494873,
        0.9992074370384216
      ],
      "min": [
        1.001501202583313,
        0.0018696211045607924
      ],
      "type": "VEC2"
    },
    {
      "bufferView": 0,
      "byteOffset": 27312,
      "componentType": 5125,
      "count": 804,
      "type": "SCALAR"
    }
  ],
  "asset": {
    "extras": {
      "author": "Uragan27 (https://sketchfab.com/Uragan27)",
      "license": "CC-BY-4.0 (http://creativecommons.org/licenses/by/4.0/)",
      "source": "https://sketchfab.com/3d-models/books-cabinet-1aec9a9fbc9e490d9431afb98c89e062",
      "title": "Book's Cabinet"
    },
    "generator": "Sketchfab-12.65.0",
    "version": "2.0"
  },
  "bufferViews": [
    {
      "buffer": 0,
      "byteLength": 30528,
      "name": "floatBufferViews",
      "target": 34963
    },
    {
      "buffer": 0,
      "byteLength": 53352,
      "byteOffset": 30528,
      "byteStride": 8,
      "name": "floatBufferViews",
      "target": 34962
    },
    {
      "buffer": 0,
      "byteLength": 57624,
      "byteOffset": 83880,
      "byteStride": 12,
      "name": "floatBufferViews",
      "target": 34962
    },
    {
      "buffer": 0,
      "byteLength": 38416,
      "byteOffset": 141504,
      "byteStride": 16,
      "name": "floatBufferViews",
      "target": 34962
    }
  ],
  "buffers": [
    {
      "byteLength": 179920,
      "uri": "scene.bin"
    }
  ],
  "images": [
    {
      "uri": "textures/Books_cabinet_baseColor.png"
    },
    {
      "uri": "textures/Books_cabinet_metallicRoughness.png"
    },
    {
      "uri": "textures/Books_cabinet_normal.png"
    },
    {
      "uri": "textures/Books_baseColor.png"
    },
    {
      "uri": "textures/Books_metallicRoughness.png"
    },
    {
      "uri": "textures/Books_normal.png"
    }
  ],
  "materials": [
    {
      "doubleSided": true,
      "name": "Books_cabinet",
      "normalTexture": {
        "index": 2
      },
      "pbrMetallicRoughness": {
        "baseColorTexture": {
          "index": 0
        },
        "metallicRoughnessTexture": {
          "index": 1
        }
      }
    },
    {
      "doubleSided": true,
      "name": "Books",
      "normalTexture": {
        "index": 5
      },
      "occlusionTexture": {
        "index": 4,
        "strength": 0.5
      },
      "pbrMetallicRoughness": {
        "baseColorTexture": {
          "index": 3
        },
        "metallicRoughnessTexture": {
          "index": 4
        }
      }
    }
  ],
  "meshes": [
    {
      "name": "Book's_cabinet_low_Book's_cabinet_0",
      "primitives": [
        {
          "attributes": {
            "NORMAL": 1,
            "POSITION": 0,
            "TANGENT": 2,
            "TEXCOORD_0": 3,
            "TEXCOORD_1": 4,
            "TEXCOORD_2": 5
          },
          "indices": 6,
          "material": 0,
          "mode": 4
        }
      ]
    },
    {
      "name": "Book's_cabinet_low_Books_0",
      "primitives": [
        {
          "attributes": {
            "NORMAL": 8,
            "POSITION": 7,
            "TANGENT": 9,
            "TEXCOORD_0": 10,
            "TEXCOORD_1": 11
          },
          "indices": 12,
          "material": 1,
          "mode": 4
        }
      ]
    }
  ],
  "nodes": [
    {
      "children": [
        1
      ],
      "matrix": [
        1.0,
        0.0,
        0.0,
        0.0,
        0.0,
        2.220446049250313e-16,
        -1.0,
        0.0,
        0.0,
        1.0,
        2.220446049250313e-16,
        0.0,
        0.0,
        0.0,
        0.0,
        1.0
      ],
      "name": "Sketchfab_model"
    },
    {
      "children": [
        2
      ],
      "matrix": [
        1.0,
        0.0,
        0.0,
        0.0,
        0.0,
        0.0,
        1.0,
        0.0,
        0.0,
        -1.0,
        0.0,
        0.0,
        0.0,
        0.0,
        0.0,
        1.0
      ],
      "name": "49474fab35c94ac78cefe75544e0d69b.fbx"
    },
    {
      "children": [
        3
      ],
      "name": "RootNode"
    },
    {
      "children": [
        4,
        5
      ],
      "matrix": [
        100.0,
        0.0,
        0.0,
        0.0,
        0.0,
        -1.629206793918314e-05,
        -99.99999999999868,
        0.0,
        0.0,
        99.99999999999868,
        -1.629206793918314e-05,
        0.0,
        0.0,
        0.0,
        0.0,
        1.0
      ],
      "name": "Book's_cabinet_low"
    },
    {
      "mesh": 0,
      "name": "Book's_cabinet_low_Book's_cabinet_0"
    },
    {
      "mesh": 1,
      "name": "Book's_cabinet_low_Books_0"
    }
  ],
  "samplers": [
    {
      "magFilter": 9729,
      "minFilter": 9987,
      "wrapS": 10497,
      "wrapT": 10497
    }
  ],
  "scene": 0,
  "scenes": [
    {
      "name": "Sketchfab_Scene",
      "nodes": [
        0
      ]
    }
  ],
  "textures": [
    {
      "sampler": 0,
      "source": 0
    },
    {
      "sampler": 0,
      "source": 1
    },
    {
      "sampler": 0,
      "source": 2
    },
    {
      "sampler": 0,
      "source": 3
    },
    {
      "sampler": 0,
      "source": 4
    },
    {
      "sampler": 0,
      "source": 5
    }
  ]
}
